<svg xmlns="http://www.w3.org/2000/svg" version="1.1" xmlns:xlink="http://www.w3.org/1999/xlink" xmlns:svgjs="http://svgjs.com/svgjs" width="1440" height="560" preserveAspectRatio="none" viewBox="0 0 1440 560">
    <g mask="url(&quot;#SvgjsMask1034&quot;)" fill="none">
        <path d="M465.591009883848 541.2207039264613L575.160047055591 503.4930588666684 537.4324019957982 393.9240216949254 427.8633648240551 431.65166675471824z" fill="rgba(118, 255, 141, 0.37)" class="triangle-float2"></path>
        <path d="M528.033113143774 101.52362775030359L482.0307436994194-24.866843539469883 355.64027240964595 21.135525904884716 401.64264185400054 147.52599719465817z" fill="rgba(118, 255, 141, 0.37)" class="triangle-float2"></path>
        <path d="M278.5523033373901 237.69750622281353L197.10264273632674 143.81984608813997 159.94362628481065 245.91340471782337z" fill="rgba(118, 255, 141, 0.37)" class="triangle-float1"></path>
        <path d="M376.345,235.948C392.067,236.896,408.183,230.908,416.365,217.449C424.831,203.523,423.478,185.949,415.313,171.845C407.166,157.772,392.579,147.396,376.345,148.325C361.294,149.186,351.157,162.423,344.403,175.901C338.452,187.776,337.659,201.35,343.897,213.077C350.558,225.599,362.188,235.094,376.345,235.948" fill="rgba(118, 255, 141, 0.37)" class="triangle-float3"></path>
        <path d="M620.4211469609729 69.9541943856342L585.9941567048733 12.658060863326355 517.2634515494614 92.94661300862978z" fill="rgba(118, 255, 141, 0.37)" class="triangle-float2"></path>
        <path d="M1197.2285272018196 284.4573574867226L1244.4998023581502 373.36169572390236 1333.40414059533 326.09042056757164 1286.1328654389993 237.18608233039186z" fill="rgba(118, 255, 141, 0.37)" class="triangle-float2"></path>
        <path d="M646.4585505134693 94.04332051333476L579.4513498076036 189.54567728265303 680.8760189592897 200.20583957091526z" fill="rgba(118, 255, 141, 0.37)" class="triangle-float1"></path>
        <path d="M434.89730995623825 404.50643791111816L459.5761214609823 248.69055439266057 279.0814264377807 379.8276264063741z" fill="rgba(118, 255, 141, 0.37)" class="triangle-float3"></path>
        <path d="M929.2867431393603 52.06183721207566L815.9494942956266-5.686375449489674 758.2012816340613 107.65087339424402 871.5385304777949 165.39908605580933z" fill="rgba(118, 255, 141, 0.37)" class="triangle-float3"></path>
        <path d="M819.0338728647423 324.96806976245597L952.3111505596768 376.2742088434243 934.9368087604917 252.6493432591482z" fill="rgba(118, 255, 141, 0.37)" class="triangle-float2"></path>
        <path d="M455.471,287.223C480.162,287.919,504.252,276.272,516.57,254.862C528.859,233.503,525.109,207.807,513.74,185.945C501.236,161.901,482.537,138.754,455.471,137.374C426.47,135.896,398.593,153.303,385.916,179.429C374.449,203.062,385.816,229.508,400.058,251.58C412.821,271.359,431.941,286.56,455.471,287.223" fill="rgba(118, 255, 141, 0.37)" class="triangle-float1"></path>
        <path d="M421.608,586.983C459.25,587.374,494.02,566.105,512.17,533.126C529.712,501.251,523.96,463.715,507.228,431.408C488.726,395.685,461.829,357.431,421.608,358.268C382.139,359.09,359.744,399.609,341.949,434.849C326.371,465.7,318.213,500.662,334.245,531.28C351.416,564.073,384.593,586.599,421.608,586.983" fill="rgba(118, 255, 141, 0.37)" class="triangle-float3"></path>
        <path d="M1397.788263152282 45.32930005100307L1315.6524158820857-8.121700872645656 1309.6767748664563 77.33394696178917z" fill="rgba(118, 255, 141, 0.37)" class="triangle-float3"></path>
        <path d="M673.0510623122818 386.3878884646356L574.4676157528196 306.4009060612907 555.1969508519221 415.69027756569596z" fill="rgba(118, 255, 141, 0.37)" class="triangle-float3"></path>
        <path d="M926.2799729389747 38.17690095006197L1021.8286520077766 62.09660591187846 999.5437986475034-21.071599067882786z" fill="rgba(118, 255, 141, 0.37)" class="triangle-float3"></path>
        <path d="M1271.080346375418 431.945999199659L1198.9054055866497 375.556755367421 1214.69110254318 504.12093998842727z" fill="rgba(118, 255, 141, 0.37)" class="triangle-float3"></path>
        <path d="M484.0493118462645 382.955789545781L544.2537515093636 433.4733126623222 589.927816352626 317.90789160940295z" fill="rgba(118, 255, 141, 0.37)" class="triangle-float3"></path>
        <path d="M644.7316119555026 614.0752203389769L686.7441218293867 527.9368099501639 536.5302513092252 507.9872503337441z" fill="rgba(118, 255, 141, 0.37)" class="triangle-float3"></path>
        <path d="M1212.838,626.646C1245.48,627.855,1279.91,615.615,1295.071,586.683C1309.496,559.155,1295.351,527.413,1278.532,501.278C1263.418,477.792,1240.765,459.264,1212.838,458.905C1184.327,458.539,1158.691,475.022,1144.157,499.553C1129.317,524.599,1126.681,555.348,1140.522,580.959C1155.051,607.844,1182.299,625.515,1212.838,626.646" fill="rgba(118, 255, 141, 0.37)" class="triangle-float1"></path>
        <path d="M1408.2701181037523 587.9867781927167L1494.8519422250606 504.3756825364488 1411.240846568793 417.7938584151404 1324.6590224474844 501.40495407140827z" fill="rgba(118, 255, 141, 0.37)" class="triangle-float1"></path>
    </g>
    <defs>
        <mask id="SvgjsMask1034">
            <rect width="1440" height="560" fill="#ffffff"></rect>
        </mask>
        <style>
            @keyframes float1 {
                0%{transform: translate(0, 0)}
                50%{transform: translate(-10px, 0)}
                100%{transform: translate(0, 0)}
            }

            .triangle-float1 {
                animation: float1 5s infinite;
            }

            @keyframes float2 {
                0%{transform: translate(0, 0)}
                50%{transform: translate(-5px, -5px)}
                100%{transform: translate(0, 0)}
            }

            .triangle-float2 {
                animation: float2 4s infinite;
            }

            @keyframes float3 {
                0%{transform: translate(0, 0)}
                50%{transform: translate(0, -10px)}
                100%{transform: translate(0, 0)}
            }

            .triangle-float3 {
                animation: float3 6s infinite;
            }
        </style>
    </defs>
</svg>